<mxfile host="app.diagrams.net" modified="2023-11-20T20:18:26.096Z" agent="Mozilla/5.0 (Windows NT 10.0; Win64; x64) AppleWebKit/537.36 (KHTML, like Gecko) Chrome/119.0.0.0 Safari/537.36" etag="OF6-2fD2DWYGj_di3WWe" version="22.1.3" type="device">
  <diagram name="Page-1" id="-gSDYPHJ2XuPvYt0DP2Z">
    <mxGraphModel dx="1652" dy="914" grid="0" gridSize="10" guides="1" tooltips="1" connect="1" arrows="1" fold="1" page="1" pageScale="1" pageWidth="850" pageHeight="1100" background="#FFFFFF" math="0" shadow="0">
      <root>
        <mxCell id="0" />
        <mxCell id="1" parent="0" />
        <mxCell id="98jtdk2MFVm2xaBJrfz--6" value="" style="shape=image;imageAspect=0;aspect=fixed;verticalLabelPosition=bottom;verticalAlign=top;image=data:image/png,iVBORw0KGgoAAAANSUhEUgAAAOEAAADhCAYAAAA+s9J6AAAAAXNSR0IArs4c6QAAIABJREFUeF7tXXecFFW2/rqnmxmYYYAhKZIkCLiOCupDFtA1o6z6dAUURFDEgAiKiiQXUZKSVMDAGkBEEdPCLsaVXQV1fYZBUUAJCuigZIbJPV39fuf23J7qng7V1VVdPdWn/hF76qbvnu+ec88595bD5/P5wA8jwAhYhoCDSWgZ9twwIyAQYBKyIDACFiPAJLR4Arh5RoBJyDLACFiMAJPQ4gng5hkBJiHLACNgMQJMQosngJtnBJiELAOMgMUIMAktngBunhFgErIMMAIWI8AktHgCuHlGgEnIMsAIWIwAk9DiCeDmGQEmIcsAI2AxAkxCiyeAm2cEmIQsA4yAxQgwCS2eAG6eEWASsgwwAhYjwCS0eAK4eUaAScgywAhYjACT0OIJ4OYZASYhywAjYDECTEKLJ4CbZwSYhCwDjIDFCDAJLZ4Abp4RYBKyDDACFiPAJLR4Arh5RoBJyDLACFiMAJPQ4gng5hkBJiHLACNgMQJMQosngJtnBJiELAOMgMUIMAktngBunhFgErIMMAIWI8AktHgCuHlGgEnIMsAIWIwAk9DiCeDmGQEmIcsAI2AxAkxCiyeAm2cEmIQsA4yAxQgwCS2egFjNV1VVwXfoIJTiIlQdPQBv4T74io/Be+iAv6hXATKc4p8Zec3gyGmIjFYt4GrUDM6cXDjymsLlcoU0owDwl+HHegSYhNbPQVAPPPt+R+WvO1H14w5UfP0VlN92w7F3LxwlRUB5if/drOzIvVa948vOBXIbwdGxKzJ7nAHXSR1R74QOcLdomWKjTu/uMAlTYP6JeKUb/oPKf70PZfsWOA7uFURzODP8vauXqb+XlRWirE/xChI7GjcHuuSj3oUXI+v0Hsjs0Fl/3VzSEASYhIbAGH8lZGaWvrcWZa+vgOPHzaICQbpECKexG77y0sCbSqcuaDDwBjS4pH8Ys1VjhfxaQggwCROCL/7CpPWOrVqBqhcW+onXIDcpxIvY08oK+EqLxJ+dA4aj0U23sbka/7QmVIJJmBB82gsT+YqWPAHvWy/7Tc2sBtoLJ+lNoSHLS5Bx1WDkDB7OpmqScGcSmgy0WvNZrvU0jlWS0XXjnWg4cAhrRo246X2NSagXOQ3litauRtnjjwjPZipqvlhDIDKSh7X+2PuR2/9yDmvEAkzn35mEOoGLVoy035EHJ8H3+Tq/N7KOP74j++HoeT5y753AJqoJc8kkNBhU0n4V82eAtEhd1H7RHDjkuc0cNxm5/a9UvcaB/0RFiEmYKIKivF8QD8yeBuW1pbbQfpFgIa1IjpumU2ZUv8IkTFSEmISJIgiguKQExaNugHP7D/bSfhGwEXvF49sg78ml1U4bJmIiYsQkTAQ9ALT/O3T9VXCWlVgb70twHPEWJ424o8MlaPPMQrTOq87s4XzUeGEU7zMJdcHmX/krdm5D0cghAKWGJSHTRVdXTSjk9hZje15P3H/WYlH7oqEZ6NbaXd0SJ4bHCzmTMF7Eqt8v27oFRWNGpJ0GdHuPYUvzczHttJnwZGQJNNzeciwYnl1NRCZhvCLFJIwLsRoNeOS2YWlNwFJkwV1thXq8QAOoiUigMhm1ihaTUCtS1e/RHvDwLUPgOLg/zUzQ2hpQDZ0k4rOjGlbvEZmEWkWLSagJKb8GpJMPB0YMQsbO7WlGwGJsaX5OkAkaDjYiYqtcBS+NyoLLJUnIZIwlYkzCWAip/r7v/ruBDR+kRRhCDls6Yab0mBfYA0aDjIj4P22rMPeG3ED8NA6I0/JVJqHGaT/65quomDHB1oH4UChCvaAaoQIUN4b3qcDQc+mkCGvCWLgxCWMhBIhQxNGhV6WGBlSflA/puyEn8avr1E1A2SfFjUXDFHRrncCtABrmxg6vMAljzqKC34YNsG4fKA/dZmWLLBVni1ZwtjoOjqbNxcVOcLsBj0dc/OQ7uB9K4W9Q9hXCsXdPYGTx5rBSGGJ73tmBOGBMiMK8UHt/yBoxEo5MwhgSdvTVl1DxxOzkasFq4tEJDN+ZvZF1zp+Q2e1keFq2Qk52lEueqsdCaXTu3wtRsWUzyj/+DxxffuJPKNdwfUa8e8BY+8NruisY05/N0mg4MQmjoBPIiNGjCnSWoXQw34ldkTV4OBr0+ZMhB2rlRVJlq1fB+d3XEa/UCBeI1zmMQDHSiM8Mp4waNktZE+qQpmR6Q4l8aNMR9ceOR/2+55ty6RKFWMrWr0Pp4gVw/LQ1yMlEGlBLGCJeGGu8pTnVRdksDcWQNWEEqSop+AwlNw823xtaWQHlSCHcoyYjd+RoU8gXOkQiY8kbK1E+/W44W5wIMzSguk0i4rxBDpzVmbQhk5BJqGkpV7B/1Ehg05emBuXl9RGNn14WcmLdrKNBVC89fiKQuU3pd3tyuoDigOpUNE0waXyJSJh/nBeLb6b9LLVt1vg0dijFXmNNGGZCkqEFxWVKfS5C3ow5SdF+keVOwdSXDmLDrsaA02OeeCpuzB5YxdowDMJMwjCg0F7Q8ek67VrQ49AuvG6f8FQ6Lx+AZhOmai9n6psKnlhbitUbM00jYrA2rNHGpg6rjlTOJAyZKBGYH3Bx5L2gmnA5lXA08SGjcQWcTSrhaFgFV643qMaqogz4jrmgHK4H75FM+A47kHHZUOSNHpdCIuI3U80mImXSLLsdnOAdMvNMwhBADi2aj6pXnq8dFyTyuX3I6FAEV6cyuNsUw9XyGByu+Ew4lxfwZPWD0uR0OJudC2fuKcjIbF3dC7lns0pT+E3Tf/+cHTimZORKQdrQHzeUnlIja6+7dTEJg+ZOwf6+3WvM0Gqt52hTgQZ9DsB90r4A6XxV8iR54pPvazIAjjZD4Wh8FlzupolXqLsGBVVVCsYuLcOm3zJMI+LHU+gwMHtJ5TQxCVUCG3DIZLcQv7ryi5DVe19A4xlJvHA88bk7ASeMhLPtDdVkDPZm6uZWnAX3FVXiusVVcZbS+Do7aGoBxSQUkNRcWehb+yYyulag/nn74T7hEMwmXiTR9bV/BPU6jrVIYyh4t6AUc9423lFDJul57Usw7XrS+KwNaf6ZhCoWHPlTN7iH70PmiYfEr1YRMGCmuDzwnfwO3M37aVQzxr52x7PHTDFLiYh+k9Sqva+xOCVaG5OwGsHybcuQsXuk2PNZTb7QSfW2HAZXl9lJ3y9u+aUCo5c5DQ9bEAlH9lX4vGH1RKc9Cas8B+HdPhfOwnmJLmimlqf9ovP0V+HKzTe1neDKFdz7YjH+b7fLeCeN4saVp1dg1CV0FYYriWNKvabSlIT+PaC34hcoX40Eyj5MvZmJ1KNT1yTRPFWw5RePKdrQvxV3o2vLckwdmIkWufXqzhwY3NM0JGH1pU1Fm6BsHASHZ7vBkJpfnbft35DVeZj5DfmZgjueLTFlb0i1y8O/c6/PROs848I+SQLHkGbSkIRAVdEm+L44wxAArarE7z29OynJ0Ms/Ksbf1juNN0mrwUv36xLTjoTCBN3QwSruGNpusjTiL4c8GPykxzQSSo1Ilwm/cocr7UzTNCOhAs+H0jVuKB+sqyywRzTveBCdP7z+yXLsLzE/rkdX6v9zQm5aOWvSioSeTy+tW04YjdR29tmpyj/VWCiu18zNKVV3JfgkvvmkjwsGk15OAxL6NUTljgVw/Hy/STBaV61Svzsyznrb5BiiguUflWLpBuMzaMIil2b3lqYBCe3hiAknrDUEbFL9Z7M0h4IPN5Vj2mqYui8M1Yj+C6LIY2rWuKxbPNUtpwEJFXg+7W87MzRYA5q3H/QLiz9eeOtSb1JJGPxdC/sS0cYk9AumTEdLjTXPmF4kl4B+Ev5yyGu6h7QWOgGzlM4fmr3QGDM3emqxMQkBSknzfXy8HlxStkxy9oC1h09himHPxHeA2QgQyVv64pgctMil1DZ7akNbk9Buzpjka8AaGllFwnRI9rYtCUkL4tNmlp6IcDs88PiMScWySgNKGgoSPuX/P4/P3MB9qAat0Yb2zC+1LQlpL5i1Z7hhJNBiWolrKnK6wOtoJ153Og9BKdsM56FPEspRtVIDynHTafuvd1RifxHwzS4F3+2ugsfRMDmEVNy477IK9Otuz7tpbEpCBRWf9oKzrEALdxJ6R+v9MJSv6v315biPTFmtAcOD47+LpuAnD179zCOOOtEjv2GfEKBhCssk75Vj6MMyYnkzuglL67MlCZORoE3n+xzd5ms4VhR8Twzlrnq2TUPG78tiTnwqaMDanVTfCOf/6xfbKjDvHS8Ki8xL8qZjT/7vHdovbmhLEprpkKF9XmXjwXDmP5FAloqC8m3LxUn+SE9qasDI6wbllz688rCp1yX6T+PbzyS1JQkrPu1piilKBCxvcTOyTnkmAZOoJt7l2f8u8O0VCHXgpKYGjKm4xQtTX9pvypX6wSYpm6PaZsOit8yMDRI5Mv/4WQIErA1KqNauaxownLlq2iFgxY1X7vTZ7qiT7TSh1C5mrAFmnVaQmrsua8AavBUUl5ThsgUO4x01gTtL65sxvZbVaSMSmnxaos0UuE/6q8HpU8FXbTh7rYfLbXYydnJkjU7jG33qIjhwbx8vqf1I+PUQOA6/ZrikOc7Zm4AjJlp35B4x9L+GDyGpFZKj5vzZlYZqQ7ueNbQRCf0yZoZThmKB9XqsSKoQ1/3G/J9be73A2LBF82wFK8fYy0NqIxJWm3YfOQxNVRMe0TZLk3i7Wd2nnxzBh5tKMXON2/DLgz+cSEF7+5yqsBEJaerNuUPGcdZXSb501w5EVLCvqArXLXQYSkI7XqFvKxKaFZ4wbz9oB7JFD+BfMqfS0EESCd++24ecbPKQ2iNeyCTUICJMQg0ghXlF3tJmZDpbDQmz9XUqBUsxCTVMip+EFDqwx8qrYciGvEIk/PPsIngyjLtmkkloyNSYWYk5e0KzgvRmImF93ebtCddNqGere0ltpAn93jLPhyYc/EzqR1isp48xPVDE6YoJq1wmOGbYO2rMHBleS3XGzMcnJ3SANly3lFb3ILPbLMN7bO8KzYwTEgntszWwnSasNCFjhj4c6jrXa6uJN38BUNBv+hHD94P/07YKc2+gYD2T0Pw51NmCWWcJk/XxFZ3DTqFifovEjEA9OWWu6a5gTH97nbC3kSb0yyGdonBvutSUu2U4VKGF6/6T90ZrQVGp4sakKzy4IF+SUEt/Uv8d25GQro/I+KSNKSTkHNJoAl1z7YUZOaOShHyeMPUXFdHDKoPzR+WwxdUW7eYn7eOcdQTu6m76SWjmh2Po6sN3pzS21X6QMLOdJqRBVWyZiMy9s03RhkLSxNnCKdXCYJ9EYn2kr9GARECzvuhbsx+01wkK25IwKbetNRmAjD88YvJ3AfXRIrml/EH5xWuOmnK3TGAsgVP1mawJkzvBelrzr8yVH59ieLwwtDdknu46fi6Kmv0Z+c276OmsQWXUB4INqlJDNUS+9woqsWJ9JUqRZegBXnXz8pv2/i/4UmjCPuEJ22pCQUKTPwpKBNxZlYeBR3vCoTTAKbkd0feEHuiW1wk5mckzmZzexnBW0T4pOU9xmYKthV5xC3fBry7hsYTT5A/F2PyjobbcE5I4kpdU2dDBFMmUBLz6UB+4Hf5vTdD3GcoUCugn72noVpB18GZkHrxctJ+Mh8Yr2zLrxu1QLUj///IoN1rnGfNdj2TgFE8btiUhgUAOGmfhvHjwiPluOALGLGTSCz5naYCEpmsjk8YQq1oyRc9rX4Jp1ze1nRkqx25rEpI29P23jWHXXUgCDjp8XizZScrf7U5CImCNFsxgEiZFqkxoxPPjQ8Ce6QnXnEoaUA4mHUhoxzS1UGG0tSakwdKVF8pnfRPylKaaBkwHEkqPqP8rvSYcT0t4WTauAtuTkKBK5FbuVNSA6ULCSf0V236TUE3hNCChP4ZW/t1ITZ8jU4OTygSkftrVHA12xtBI7RUXTDtzVN5PGa9ZmuoEtC0JFTeaN6zAS6OyqgPzTELjDN8UqElr7DA0EJ8CXQ/bBVtqQsWNZbcDrfPs6w1NQ00oh1zz8RXfF2dE5FVd0IC23RMGfXUpfRLj02BPWJtvkRw1dYmAdjNHaR849Urggny6HtHee8A01oTBQw8lYl0joF1IKAPyNQS0/x6QSahCgI48oeBUuLwQydjqXNBU3Qeq+1XX94QyFvjwoPo4q7P9jihplaG0NEfV4JCzZteXt2JgoU+chqhLT10mIREw/zgvJl6dVe2EST8NKGUt7UnoB0LB9A2LsXz3e6jvzAicjEh1QtZZEipuXHl6BUZdkj5hiGiyxCRUobNp/w+4ad1kFHnLkWvg9xPMInNdIyFpv1a5Cu65NCOtzU/eE8ZkhILnv30Nj3y3XLyZymSsKyQk8tE5xOF9KjD0XLXJn15e0Eiix5owAjL0RaEXN7+Bp7a8JjRjKpqpqUxC6fWkg7/D/6jgqjMdyMm2z+fMYq7lcbzAJAwLlrxBzAki4xe/fYMlm1ah4OhWcXo+VQiZaiRUE69rcy8uP8OBC/PV+770db7wnjCOVSnaq7Rn3H74J6zZ8W98V7RDaEj1Q+RM5uPK8CT9egv1+NRXXdBer3VjBRfmO3FKu8y093jGIwesCeNBS/VucUkJfir9BcUVxdhyaDsKi/Zhx7FfdNams5ijEu6iS+Eu6qWzAn3F6tfzoW1TJ5rkAK3ynOhyghv1XD60yHWFqZD3fbFQZhLGQqhO/L3mAl7zu0ukSp+8TvPxtOkN3MkAjttgIholA6wJjUKS62EEdCLAJNQJHBdjBIxCgEloFJJcDyOgEwEmoU7guBgjYBQCTEKjkOR6GAGdCDAJdQLHxRgBoxBgEhqFJNfDCOhEgEmoEzguxggYhQCT0CgkuR5GQCcCTEKdwHExRsAoBJiERiHJ9TACOhFgEuoEjosxAkYhwCQ0CkmuhxHQiQCTUCdwXIwRMAoBJqFRSHI9jIBOBJiEOoHjYoyAUQgwCY1CkuthBHQiwCTUCRwXYwSMQoBJaBSSXA8joBMBJqFO4LgYI2AUAkxCo5DkehgBnQgwCXUCx8UYAaMQYBIahSTXwwjoRIBJqBM4LsYIGIUAk9AoJLkeRkAnAkxCncBxMUbAKASYhEYhyfUwAjoRYBLqBI6LMQJGIcAkNApJrocR0IkAk1AncFyMETAKASahUUhyPYyATgSYhDqB42KMgFEIpDgJ+UOURk0015O6CKQUCek78N98uwlbt/6A3bt/RUVFhUAuMzMTbduegB6nn47OJ3VCTnZ26iJqQM8IB/lkZWbC5Qr3LXgDGuIqUgKBlCAhCd0/176Ld9/7AKWlZXC5MuB2u4MA8ng8qKioRMOGORg04GpcdOH5thTOqqoqTPnrw9j508/wer0Yd/do9O51dkoIC3fCHAQsJ+GP27Zj4eIl+P3331G/fpYYJRGuqsobNGI1McvKytHhxPYYd9dotGjR3BxkLKpVknDvb7+Bxjl2zO1JJSEtiNt+3I6vN27Evv0HUF7mt0ay6mfixPbt0aP7aTipc6ew6BQUfIPS8jLxt7q2cMi+N8iqj+7dT0vq7FtKQhr4nPmPC63ncDiEFmzQoD769umFrl27oEnjxgKMw0eOCBP14/WfCoLWq1cPx44V47JLL8KIG4clFTCzG7OShO+8+z7efvdfYkGkRS/cQki/0QJ4041Da5Fx6rSZ+O77zcJaWfrc02ZDZWj9EyZNxbbtO9CqVSssfOxRQ+uOVZllJCQNSGaX1H7FxSUYcM1V+HP/fhH3fLRKv7rqdbz9zgfo/ceeGHfXnbHGV+f+bgUJqU1aDAsKvg2Qj+ala9eT0KJ5M4Eh7dG3bd8uiCkJeuOwIbi038UBjGc9Og+bNn2Ppk2bJV2QE51oWkBofG3btMHsmdMSrS6u8haRUMHwEaPg8/lEZ+M1u0iD5uf/wdZ7wmSZo5L0u/fsEXNBBLpp2BB0754PwBkkTPTuB/9ahxeWrRBEpD36U4sWBLYETMK4uBd42RISrlz1Bt58a40wPckETfa+Rx9UySmVbE04/7GF+O/nX4rBnd3zTIy7645a5Asd+b59+3HXPfdjyqTxOLlbV9aECYpG0klIQjbiFppovwOGNNrE8fckOAz7FE8mCcmimD5rDjIz68U9D9TP0NAJa0J9cph0EtLEz3p0vtCClZWVePCvkyJ62/QNKbgUrdrbduzAnj2/oqSkGNnZOWjT5gScdmq+pnij9Bb+sG27KE9Pq+OPxxk9umv2zNL+9+uCbwLtd+ncSQg9PYcOHQ50mDy9WklI4/rq6wIU7t2rq09UiJwRZIaSo+vRWQ9rHk+kedFCQsJz9+492LVrt6gmt1EuOnfsGLFtwqO8Ol4cLT6sjq1Gek/KQtHRolrtptWekEzRNf9YKzyiubmNsGDuTFP2dtKJ8+G6jwLOBCk85FygRYDijWrHQqhwffLZf7Hy1TdRWFgotIW6PO2JLjj/XAwaeE1EMhP5Vry8SngM1eVpL9W5U0ece05vPPv8i6Ja6VGMRUIa15K/PS9MSOpDuD4NGzokJqYkkLePvlv0i8ZhhJc5FgnfWr0Gq9e8LTzbGRk1fadxnHlGd1w/+NpaZCR5Ia8tPc8tWRxxXHfeNR5FRUdx2qmn1HLYqTGTeFEMlvpAJviY0bcLxxQ5ldLCMSMnikjYvl07TJs6KaLCI4EkYLQ82TnZAY1KoE+f8agIeJOXLzTuKD2y5BDy74Nqe1nlvjVc7FLGLKl8y5Yt8cCk+2oJz+YtW/HInAWibRqrug/qmCeFZshBRQsSucajkZCI8/DMOTh48EDEOqlP3bufGtPEpwXm8SeeEtA++NeJQXs7LXiHeycSCWlMTyx6KrBw0CJEoQB6aCzyIZwmT7wvyDKS80CYvfjCkqgkpNBK6HySLEycPC3QDi3ANGf00PtERloQGzXOTR8Sktr/edcuIZS0+kULMxCAN908KqZMEJBnntk9IHjStCAzixw/JJTn9O0t4o5kBn308SeCoNIxdPVVV+DagX8JtEMrL2monJxs0U/yGF7W70K0a9dWxCw///wLIVCS4KEueSLL+IkPBHl/qY1T8/+AivIKEQgnDS3jo9pIqGDqtNnCja6Ok/Y6u6cQzO83b8bfV68VYyAiho4pFETSSq+9/nfRhzmzpydsilL9kUj43AvL8N7764TmJk1DMUaKNdJDpiZlS0nriH5bvHB+wLqQlhP9HouEROhQmZKyQOQjgpK2zctrItqmrcBzS18UoRm52B5/3HH2D1HIiSIQYjlliIR33DkuoE3CsZE0Ce0tO3fqJLSqdDaQeUcEvO7av+CqK6+oVZS8gl9+VRAQaOlqpzZvue3OgKaheh+YPL7WCkyaZPGTS0R5akcdM5N1Sw0Ybt+rTlSgzsXShNTe/AWLhNkayaMs99skUBR3XfbCMxFNZSIGLQTU/0VPzNO0P461GoYjoYwHEwEjYUn10sK3fMVK0YTaPE6EhBKzWCa32jpLCxLKyScBjTVgaVZGmvyS0jKxD1B7WdWaNhrJyUS6+95JgfJXXN5faENpppEgE8GjCah6LPQuZYlI7a0l/BK6P45mjqoXr9A9HGnef6x9W2QUyUcmP6g1vBpHtbltpiaUYyRNtOjxuVE1rtRaJBvLnn9GdDcREkrMaKF59plFEU1ZGXLRIpOxFiI9f0+6d5RWPAr2SvWfiACoJ0gK5sDrhom6ySSbOH5c1DxANQnkgiCJRWDGMpdplX/woZlCa1J7zz/7pMi7JO+vJLHWyY+lCYePuE2Yt9TO9IceEPsm0nx/X7M2yPEj9zxkPvft2zuihpPzQBrKKA91OE0oiSUtlWhCKhdAdZ/0klC9F9TieJKe4rRwzNCqM3rsvQGixNq7RJs0Ak5mlpA5SCcrBg8dEdirxRIutdaTJFBrnAHX/G9YU1b2Sb33I3LQSk/hEHJ4EAm1aPrRY+7R5JihxUWGdUioNn7zfZDXlhYC8gz2u+QiTU4WtZk4dMi1Ub3EWlf3UBJKayPcXi1cneTMevChWeJP0lmUCAnlVibWPFJ7cguRFiRUb+DlcSU92pCEaOLkB8UeiVzetKejDXc8JFRr5XAklCZqJCFMJgkHD70p4MihPTA9Uuudf14f9O7VK27nyrCbbhWmvF/wpsbMlIlFRiZhLITC/z3p5ih1Q8aoiEAkUCQEUyaP1+wckKaG3A+qTR1ptpFwxVrh5eqnNj3VJiolMEfL5lE7QkgTrnplGdSLA41tydMLI45LrvykNWOZozIORntPerp06Yx+F12YUA6t2v0fC6tw4hOaNRPOHJW/0RyTGR3tgLLaRH5s3iNiUVHvKV9e/lzY8iQPZFEQ3nILEa8WJnxJY6eNJqQJJRf5SytWCU1G4JGb/847bomZPRMaKyPhV8e51M4SEuxZM6aGJQGRZcasOUK21AnkRIwHpk4P9Ou+cWPD7ivV8TwivFwI6Pebbx0tTEz6Pdp+RO2Vi0VC9eIQzWFE49qxY6cm8zK0r5HGGo6ANH8bN34X5DkOR0IZCiGtHSseqc7gkUehqPwrK98Q8Tx1sri6TzRn02f6jx+p9/HqRTbaYqg+0RNrC6FP10UvZYkmlF0iwtCxJCKiWmj79ukt4khy1SRhobje+g2fBMXXyAy9fsjAoH1bOC0beviXJu3RuY8F4ngk1GoHitxryn7eMvLGoEOqtPIuXPy0CO7KmN3D06YE9mJScCLFIWk8y5avCIQItMQJ1XtpSfo7bh8ZZILKA9KU4UNx0xHDb4hpokrNLWOisfZPodkn6sSAcCRUex6jLYpy8SSyqsNK6vzWcAta6GKoJqG0NGR4JFxiiNqqovlOOxLSoCURSQjoIQGjRway6d+SoPJ3+m80F7wMtkstS++TpmrUqCH27TsQyKSR9agJJM1l6TySmpKyLE5s3wZHjx4TAXN6Ih0uJsF4eMajgcA6aXp6VwTrKyvxww/bhPaPL1jvj6WpkwhijWsTnkM2AAADxUlEQVTWjAdjWhZUh1rQ5bjIwUM5rpSJRE9JcYlIMpAHq+UCpXZ+RQrWy35TvI7GTGETyr1tkN1A5JG+uurNAKahiQ9qkpDFcsnF5+Py/peJsoWFe0Va4JatPwSccaEebXlKhIgoj2nRPUWlJaXCiUZpiepbHdKShFIIHl/0VMT7ZdTKnCaCNMzY0bdHDT9Ic1dOvCS4dAZJskcywUhDzJw9N0CW0AVC3nkT6XS/JKIUkHDlSSiOHSsK6x2lxGpK7wq9Y0ZqWZn6pl60ZBtE+EkT7tVEQIktaaz5jy0SC5TMSSWtRGYgPZRnqf69W9cuuO/esUGmPpGQsk9owQo9nU7m9GuvvyVyVdX1Ut3yNyoXbvsgg+5SWxMu6ocOg2/c+K3oe7g0RNkveRhZPSb6Nx0Qp4eyoMgCS5NDvUEYiv8hof38iy/x/vvrsGv3biH86ocE67iWLUXSs9ZLnohIb7y1OqB55Klwqouu0KAVNdodNTIJnMIBtGlXl2/Xti0GDbw6ZjhAXhkRWp40Dd3XIuOM6j0h5VmSxqZkBP8B2+A7T2KNK1pSeW3kg38hgQ83B1JrkzaPFAYhq2bbtp0iDzOcQ4vMQ9J6Mm1RtkyLEXl4aT4iOW5kMr0aR5lOSEn4pPEIs86dO4RNRg83D7JdyqiSfW/RolnSb2ywdE8YSSBI+MnUUD+tWh2v2XsaWm9offHWRQsE5RkeOXpUVN24UaOYe63QPpCmkeVl+2rvqB4zKNFxRSNkaN00ZgoBGXH9ohqLeOtVl1X7DWItLnKhJ20pn3jLa2lDzzspSUI9A4lcxqwLhKPXS0K8fv0nUbNWpOeQ+q4lq8NYXLi2VEEgDUiYfKjV5+YiXUgV6nDgKz6SP0+p0iKT0ISZCD3xoD5CQ0d3yCP44vJXxKl26SiKdmDVhC5ylSmEAJPQpMlQx0Clk4kcQvTI8AT9m0ItUybel/QLZ00aNlerAwEmoQ7QtBZRu+XDXetP9cSTpaK1XX6vbiHAJDR5viicQJk+FOagmCA9FGrp2fMMXHThBbo9viZ3m6tPIgJMwiSCzU0xAuEQYBKyXDACFiPAJLR4Arh5RoBJyDLACFiMAJPQ4gng5hkBJiHLACNgMQJMQosngJtnBJiELAOMgMUIMAktngBunhFgErIMMAIWI8AktHgCuHlGgEnIMsAIWIwAk9DiCeDmGQEmIcsAI2AxAkxCiyeAm2cEmIQsA4yAxQgwCS2eAG6eEWASsgwwAhYjwCS0eAK4eUaAScgywAhYjACT0OIJ4OYZgf8H4CHBmZM8W50AAAAASUVORK5CYII=;" parent="1" vertex="1">
          <mxGeometry x="260" y="558" width="177.77" height="177.77" as="geometry" />
        </mxCell>
        <mxCell id="98jtdk2MFVm2xaBJrfz--9" value="" style="shape=image;imageAspect=0;aspect=fixed;verticalLabelPosition=bottom;verticalAlign=top;image=data:image/png,iVBORw0KGgoAAAANSUhEUgAAASwAAAEsCAYAAAB5fY51AAAAAXNSR0IArs4c6QAAIABJREFUeF7tnXecVOXVx8/O9t4rVVERUCOCBZEoUpYuoCCKCAqR2I0JxmiiibGgxt5eCXaDgHTpNRQREbAQ6QgqW2d77/t+ziVjlmXmPs+duZfdZ+/v/pHwce/ce57veeY3TznPOX6NjY2NhAsEQAAEFCDgB8FSwEswEQRAQCMAwUJHAAEQUIYABEsZV8FQEAABCBb6AAiAgDIEIFjKuAqGggAIQLDQB0AABJQhAMFSxlUwFARAAIKFPgACIKAMAQiWMq6CoSAAAhAs9AEQAAFlCECwlHEVDAUBEIBgoQ+AAAgoQwCCpYyrYCgIgAAEC30ABEBAGQIQLGVcBUNBAAQgWOgDIAACyhCAYCnjKhgKAiAAwUIfAAEQUIYABEsZV8FQEAABCBb6AAiAgDIEIFjKuAqGggAIQLDQB0AABJQhAMFSxlUwFARAAIKFPgACIKAMAQiWMq6CoSAAAhAs9AEQAAFlCECwlHEVDAUBEIBgoQ+AAAgoQwCCpYyrYCgIgAAEC30ABEBAGQIQLGVcBUNBAAQgWOgDIAACyhCAYCnjKhgKAiAAwUIfAAEQUIYABEsZV8FQEAABCBb6AAiAgDIEIFjKuAqGggAIQLDQB0AABJQhAMFSxlUwFARAAIKFPgACIKAMAQiWMq6CoSAAAhAs9AEQAAFlCECwlHEVDAUBEIBgoQ+AAAgoQwCCpYyrYCgIgAAEC30ABEBAGQIQLGVcBUNBAAQgWOgDIAACyhCAYCnjKhgKAiAAwUIfAAEQUIYABEsZV8FQEAABCBb6AAiAgDIEIFjKuAqGggAIQLDQB0AABJQhAMFSxlUwFARAAIKFPgACIKAMAQiWMq6CoSAAAhAs9AEQAAFlCECwlHEVDAUBEIBgoQ+AAAgoQwCCpYyrYCgIgAAEC30ABEBAGQIQLGVcBUNBAAQgWOgDIAACyhCAYCnjKhgKAiAAwUIfAAEQUIYABEsZV8FQEAABCBb6AAiAgDIEIFjKuAqGggAIQLDQB0AABJQhAMFSxlUwFARAAIKFPgACIKAMAQiWMq6CoSAAAhAs9AEQAAFlCECwlHEVDAUBEIBgoQ+AAAgoQwCCpYyrYCgIgAAEC30ABEBAGQIQLGVcBUNBAAQgWOgDIAACyhCAYCnjKhgKAiAAwUIfAAEQUIYABEsZV8FQEAABCBb6AAiAgDIEIFjKuAqGggAIQLDQB0AABJQhAMFSxlUwFARAAIKFPgACIKAMAQiWMq6CoSAAAhAs9AEQAAFlCECwlHEVDAUBEIBgoQ+AAAgoQwCCpYyrYCgIgAAEC30ABEBAGQIQLGVcBUNBAAQgWOgDIAACyhCAYCnjKhgKAiAAwUIfEBIorWmgrPJ62ldYR1/l1tCO7Gr6obiOcirqqaq+Uft8eKCDYoP9KDU8gM6PDaBeiUHUJyWYzokOoNgQh/AduAEEZAhAsGQo2fSe3IoGWnC0gtb+VElf5tRQbkU9nZQnuSs0wI/eGRBPE84Nk/sA7gIBAQEIFrrIaQRYlBYcqaDfbyuk7IoGqm9oNCRUrgfyqGvTmGTqnRQIyiBgCgEIlikY28ZDGhuJvs2voZm7S2nhkXL672zP68a1j/Cnw5PSKNjfz+tn4IMg0JQABAv94RcC27Or6TcbC2h/Qa0pVKb1iKBZ/eNMeRYeAgJMAIKFfkA8stqVW0NDP8ulgqoGU4jwmGrVqCQa3DHElOfhISAAwUIf0AhszqimSevy6ERZvWlE4kIclHFbO0wHTSOKB0Gw0AeoqLqBRi7Po8+zqkylMbRTKK0YmWjqM/EwEMCU0MZ9oLGxkf70RQk9t6fYKwo87QsLdFBUkB9FBPpRgMOPauqJ8qvq6U+9omnGJZFePRcfAgFPBCBYNu4bWzOraciyXKqsMxJdRZow9UoKolvOC6ducQEUGeigiCA/8iciflR+VYMWMJoazv8FFwiYRwCCZR5LpZ5UUddIE1bn0/LjFdJ2c3TCebGB9ELfWBrSCYvp0uBwo2kEIFimoVTrQRzCcP3KPO14jex1e/cI+utl0cTxVbhAoCUIQLBagnoreOdfdhTT07uKpSPYp3SLoNevjqWwAASBtgL32dYECJYNXd/QSNRjThYdLBQHiLI8DewQQqtHJZKfH8TKht2lVTUZgtWq3HFmjPkqp4b6LMgmFi7RxfFUC4cm0tXtgkW34u8gYDkBCJbliFvfCx7cVkgvf1MqZVh6p1BaOTKRMLaSwoWbLCYAwbIYcGt7vJHpIO8Kbr0hha5IDmptzYA9NiUAwbKZ438uraPuc7KpvFZ8ZvDylGDafn0S1q5s1kdac3MhWK3ZOxbYtvrHKhq90kk1gtwxPAX8x1Wx9LuLrYtW50PX+lcjxFKEyGZ/h2DZzOEvfVNKf9xeRHWCFXdOvrd5bDJdkmhN8r0Xvy6hLZnVuvSjgx302KXR1CU6wGZeQnM9EYBgWdg3nE4nzZgxgw4dOqT7lpSUFFq0aJGFlpx8NA+q7tlcSG//R7zg3i0ukFaPTKQOkeaLRWVdAw1c6qQvsvQF69yYAFozKok6R5lvg+Ww8QJLCECwLMF68qGZmZk0YsQI+vrrr3Xf0qlTJzp+/LiFlpx8dGFVA928Lp/W/FgpfBfvDn4yOJ5igs0vIHGkqI6GL8+lw0V1unbwGtqG0UkIVhV6yz43QLAs9HVrE6yfSuspfVmuMGCU16/uuCBSi2y3IrvxxhNVNH51njBZIEfXvzsAGUst7KLKPRqCZaHLWptgfZNXQ/0W5gp3CFmkXrgqlu77lTUL7rP3ldGdmwqEOePfHRBPU7qFW+ghPFo1AhAsCz3W2gTr/f3ldPuGfGGLg/z9aMmwRMsyMjywtZBe/Va8jvb9xFTqFmvNor8QAm5olQQgWBa6pbUJ1rSNBfTuvjJhi3mHcO9NKZYtdvdfnEubM/QznPKRoLxp7YW24gZ7EYBgWejv1iZY3f4ld+C5S3QgHbwllRwWnMepbWik1HczhOtX488Np7np8RZ6B49WkQAEy0KvtSbBclY2ULv3MoTxV4zDysXuXbm1dPn8LGFam1nXxtG07hEWegePVpEABMtCr7UmweII92Gf5Uq19uPB8XTzedYsdj/2ZTE9+ZV+Dnle9P/2plTqHof1KymH2egmCJaFzrZKsDi9MZePN3LN3FNKz+wSF5vgWeChSWmUFGo8/srf4SeMmfrV3Gzam1ejazoHjG4dm0JJYcZtMMIE96pHAIJloc+sECxnZT2NXpknjBK3sFkeH92/fQgtHJrgMdiUi7QmzD4hNG1E5zCaMzheK2yBCwSaEoBgWdgfrBAsjhIfsyqPvs/XH6VY2Cy3j2Zpuf/iSHr2yhgK9LBazwGjA5foT0v5OQ/2jKKZV8ZYErR6prngfeYSgGCZy/OUp1khWHuctTR6Ra6pVZrNQBAa4EdvXB2nG+j5/B4+eF2o+zqOAeMIeyy4m+GVtvcMCJaFPrVCsHiUMnZlHpXUiPNZWdi00x7NcVPrRyfRxQnuk/3xktttG/LpowPlumbx2cWlwxOpXxpSMp9J/6nyLgiWhZ6yQrAWHq2kCaudwmMtFjbL7aM5u8NX41M8LroXVTfQmJV5woBRLr66+8YUSglDKbEz7UMV3gfBstBLVggWH2nhoy2t7brnokh69dexHs06UVZPHOF+tFi/Ug9naPjihuTW1jzY00oIQLAsdIQVgiV7Ds/CZp32aF4o//fYZN1p3Dd5tdR3QTZVci17nevPl0bTE5dHn0nz8S6FCECwLHSWFYI1eoWTlh0T57OysFlu168ybmtHwTq5aGQPXm8ak4ySYmfSeYq9q1UIVl1dHZWXl1NlZSU1NDRQYGAgBQcHU1hYGAUEmJNt0vWOmpoaqq2tJYfDQUFBQRQeHq79vxVFQq0QLE4RU1ojHzS6r7BWS+Uic/2+ZxSNOitU5tZT7uFUxhfF60el376hgN7fr3/wmncIS6e39xgWYdiwJh9gYpwWury+kaqa7VeEOIiCHH4U4vCz5PykL3bjs6cS8Emw+Muvd7Eo+Pv7uxUD/uySJUtox44dVFBQQPv27dMydFZVVVFkZCR16NCBzj77bIqOjqb+/fvTsGHDNGExcpWWltLHH3+sPZv/zamKs7KytH+HhIRQQkICnXvuucQpilNTU2ny5MnUrl07I6/QvdcKwTJq3NO7SujPO4qkPvbluBS61KKSXl0+zKRjJfoZRvukBtPn15u3fsUilV/bSGtzqyi/rpHya+rph4p6ctY0EB/Cdl3xQQ7qEOJP7UL8KdTfj66ICaQLIgMpwOS4VS66Ucf/I66+QQEOB/laaNsl0txOBz/sv+91/Tj7aSc6uZHmFPtwMdXexVfjyeeefA9ffj63ySfBiomJ0f0isCiwYAwcOPCX++rr6+nFF1+kp556ShtRiUSPP8hClZiYSEuXLqVevXoJv3x8bOXZmc9o7ykpKdFGVKKLhTUiIoJGjx5Ns2bNMiyO7p7fGgRLJpUL2x7g8KPy31ozuuHSYp0/yBQeeOaEgS/387xwL/Jh07/n1TbSzCOldKC8jqoEFYKaP5cDX6MC/GhK+zBKTwg2bdS19qcqmrqxgMokSqy9cXWsz+c5n9hZTC+5yTvWXC/5R2r5iETdKb2IPVcTH7zs9KDg5u966JIoeqR3lOhxHv/uk2CJplEsNCwyQ4YMIZ6Sbdu2jR577DHaunWrVwazqNx8882a2PEIrPnF4rdx40aaNm0aZWRkePUO/lBycjK98MILdOONN/o0JW1pwaqub6ToWSeEJb24zX1TQ2jr9UleM9P74JxD5XTLWv3EgRwcP/ta3zOMHiqvo4XZVbQhT7/AhWxDefTFwnVVXBBF+pgvmr/UQz/LFabWYdv+0TdGi/j39soor6Pe83Iop6Je+Ige8UG0dlQicUiJNxf3sxHLnbThZ/0cZ+0j/GnlyCS6QLB8oGfDGRGsQYPT6Y3XX9PEqrhYfABXBK1bt240b948uvDCC0+59dFHH6U33njDlHfw6HDs2LH04YcfatNab66WFiyOiu89L0vKdCt352QSB3Lg6eJh3geM8nTk9R8raEdRDeWbHFQb4OdHZ4f704yzI+isUO/6AjvheEkd9VkgJyIPXRJNM6/0frd00NJcoYC4OkanyABaOSrR6+yuK45X0cS14mDm6RecDH0J9OFM+xkRLJ6W8WjFzKtz5860ZcsWbaTFI6uZM2fS448/buYrtGfdcccd9Oqrr2qbAEavlhasjw5W0OR1eUKzecVhzXXJNLCD8TaKHs6/vpd9miPM0MCBp4uHJtB5XqRE5unfiz+U0s4i8dRfZK+7v0cHOjSx4rUtX67yukbq9nGm1LGq27tH0OxrvSvA8dmxSrpuhVPaVP6xWD4yia7wYv2S/XvnvwuFGyo8ON1+g+9rpJYL1t13302vv/661DqSNGFeRHQ46K677qLXXnuN5s+fr/07P1+cr9zIO/heXvTn6eHUqVONfrTFy3w9vL2YntsjHtHyLt/em1KJh+xmX4cKayl9mZN+LNVfcOdMD0uGJVBkkLGf32OV9fTSsTLaJ3i+t+26LCZQmxKeF27ObnWvedn0tVN8cJ13a5cMTzRsdllNI928Np+WH6+Q/izvzi4bnkiDO4ZIf8Z1476CWrpmcS7lVepPPW89P4LeH+idADc1ylLB4hfx1Ip3/qy4+Nm7d++m4cOHW1rXLz4+XhMfo7uULTnC4l++iWvzadFRccftmRhE665LIv6lNfviheab14pLevF04a1rjC24Z1c30BNHSulQmb4YetumW9qF0vjUUArzce2q6fu5vNmCI2KfeLtjyutk/RblSK1buuziEfa7A+Np8vnGkzby6EpUmDcqyEE/T0kz/GPkzm+WC5a3naW1fe7OO++kN99805BZLSlYnDdr1Io8+jJbvPjM+dO5/l+Y2fv4RPTm3jK6f4u4pNc/B8TTVAMlvaobiJ46UkrbC8WjlV++mH5+lBrsoLRghxZ3dbC8zu16V8fQAJqQGkKDEz1PkXnnM7uiwXAYyF92FNNTEokUu8YG0v6JqYb6G/9IDVzipM+zjA8Q/tQ7mp66wtia2f7CWrrgX/rprnkz5Q89fVuPO6MjLD3ivA7Vu3dvCg0NpQMHDmijJQ4cNfPiqWPXrl2pZ8+e2mO5CvP+/fsNv4J3DnmX85xzzpH+bEsKFi/w/npRjnC9hH9dH+4dTU9eEa1F5Jh58UL477YW0Zt7xSW9vrkpVRh82tS2f/xQRqudYjHmz/Ci+eiUELo4KpCSg0/GXHGkgzvBG5AQTBPTQqmjzuI6B+9O3VBAmeX1tHh4oqG1H9mIf85aUfAbY1WDuN7jHRvlgoSb+3nCueE0x0DRDw5ju3uzeHTFo/ZVI5MMC7unfnjGR1i8JvTMM88Qj1jcXTt37qQpU6bQwYMHfRIvnsY9++yzHteeeN3rwQcflA5/4Oknr8UZWctqScHiL9Vl83OERSd4/eL/rtHPY+WtiPEv/pBlTmGGhhB/P6q48/QwFU/v3VJYQ08cEosgC1VaiD+90iPqtJAEHqH97XDJLwv1HHt1XXII/bZjmMfmsgC/tbfslMPnHBKwY1wyhUuOTrdnV9NVC3KkkNbe3VE6iSGLZ//FOXS4yLvp8aXJwfTlOPmg3f/k19L1q5zC96V3CqVVI42vxbW4YPFIZ+LEifTkk09Sx44ddR1WXV1NTzzxhBb4aXT9i98zffp0evjhh4Xv4d1Lvo8DRTmgVXSxyL788svSa1ktKVhvf3+yurLosjL/VGlNA3X5KEu4IHvDOWE0f0iCyFTt76X1jfTowRLhIjsLyG86hNOQxGC3EesV9Y30xOFS2lVcS+dFBNDU9mHUK9rzLiCPWB/fWUyfHKo45UfAaMJBnqonvyMXI3jitnaUJhEbxaOdF74upb98WWRo7aopcKN1IPkExWNfFpFeaQFO6sinJ3yJu2reKc7YCGvMmDH03nvvabtuMheHKjzwwAP01ltvydz+yz1GwxBYtMaPH09r1qwRvocj9hcsWCDdhpYULJmze9xgDhbcNT7F66BBPWg8mui3IEcY4W6kpBePrp4+XHbyiIuHiwOa3+gRReeGB3ic5nKIweOHS7UF9RldInSDQrni0J3/LvC409krKZi+Gi8/OomZdUIqAeOeCSkeEyI2bTr/MFw8N1t49EnPV7wckHV7e6nCH4w++d0M4Q+RNxspoi/hGREsnp5t2rTptEBPkXF79+6lQYMGUU6O3BCaA0qXLVtmaJ2JbVi/fr32HtHFz9+8ebN2TEjmaknBki2ayjuEnDDPiouPhvx1p7ik18Fb0ujsaHHYAB+5und/ie6uIE8v7+sUrrtgzm3lERaHRPSI0H9vY2MjvfZdGT20XX/0smhYIo0+W+7g+IWfZEvl5F89Kkkq1EAUvsJn+wIcJBx9yb5PplRbQqg/bR2bTF1jxX410vfOiGA98sgj2nEaby6eRs6ZM0fqo6+88grdd999Uvc2vYmPDfHi/7fffqv7WRbe7777jtLS0qTe0VKClVvBRVNPSGUlfeDiSHrxKmPhBFKNJ6LLP82hr3L0F8a5pNeeCalSa0C7i2vpjwdKdF8/PCmE7uoY5tO5uOYv4LJqvJjNR4w8XWdFBdDhSWlS5w5lUwS9JxFqIBPGwOtsCSEO4Vris1fG0oxLInX5Hi2uo8s/zdY9XsSjtak9Iui1X8ea6gc2zHLB4mMtnI0hKsq7c1GLFy/WjsiILo6R4hQ13qajef755+mhhx7SfQ0vvHPGB3fnGN19sKUEi49KjFwuVzTVyMhA5IOmf+cAxuhZPwungxwgOW9IglTHfuZome4ZQV5kn9szhmJ8OfvhoZGVdQ2U+m6m7lRONtvFPZsLpXZOX7gqln53sWcB4Z3OG1fn6cba8eiKc+QvP15Js/5TqusPLp7LRXT1Li6Cy6Nm0doVnxm8up35JycsF6xLL72UeOfP2+unn36iTp06CT+enp5Oq1evFt7n6Ybt27dT3759dT/Ponj48GHhYr7rIS0lWI/uKJYqmsrxkJm3t6NEH87HeQK2OaNa27XSu1whFX+/PFo4MimqbaD79pVQZpXnzZHpHcNpXKrxaG3ZTjNzdwk9+kWRxy/9831j6fc99Uco/C5eIJ/xuTjNteg8IY+uhi936q4lcY3HZSMS6JndJfTYjiLdUTePxPbe5Hl5IKv8ZE1M0aiZf4T4XKiv6XHc+cVywZo0aZJ2gNjbi9ctAvzFEdgzZsyg5557ztvXaOEN7dvrx73waPGHH35o9YL160W5tC1THDzI0zFeP7Li4i/3I1/o5+HiXaT/6x9Pk7p6DiVw2fZ9WR09dqiUij2kZuGsCrMvivE5o4Iei+/yayl9aa7HDAg8QnlvYJwwASEXEhm3SnzWb9L54fTBQM8jnglr8unTw+UeBZTXkZYMT6ArU4Jp7uEKmrI+X3cdi49o/TTZc0T6BwfKtfizBp0ND15D5N1NK05NnJEpoTcR4s07jSiNDd/Pa2S8VubtlZ2drSXx07tUECxev+q3KFsYH8PtNBJOYIQrTxf4PNv8w/olvZLD/GnhsJNfKNG1Mb+aXjxW7jG31ZWxQfSXcyKEYiF6j97fuXI1j2g8nR7g85CfDkkQfll59/TaxbnCRXC9GCYewQ5YkqM7NWMBffvaOG19cEdODQ1YnKObUz880KHFYnWPOz28g9fx+BzkwULPB8x5xHyviTnNWmSExYvgvBjuyyUjWDy64lGWt1dbESyeJoxa4ZTKg/R0nxh6uJd3a4t6nLmkF3+xv8gSL7hzDneZWKMl2VX0xk8VxLt27i4+93druzDh1NLb/sGfYyGesMbzWUDecV04NIE6R+nvjHFQL1fAZgHUuzhcYue45NOmVvmVDTRsuVM4NdvcpDAIT+d451ivniWPeHkq5+4QNEfRT99YoLsGxiO6FSMSTYtqh2Dp9I62IlifHjk59BdVp+EMo9w5h3c2f83nSFEdpS/LFcYFXd0uhDaNEScNZIn6JKOS3j3h/tAwL7bf0zmcRiSJR2q+CBZ/Vi+EgKfYy4YnCbfyZTNYcMqdneNTTttB5aDg+7cU6o7QpnSL0M6HNr06vp+he1SL+8Rb/eNOO9PprGygIctyhVkmhnYKpc9GJFr6o2H5GhZGWCO084t6F28qHD9+3Nfvkjb6+MfXZfSnLzgCWb9QBQeMLhlmza8hT3kGLckViqZs0kBuyQcnKujjDPfVgliwHjxLHHvlM2Ai4l0yjkNyd3FoA39h3U2pmt7PNRqHfuYUxmLxAegtY5MpMfR/a7iFVQ00YoWTdmRVexztcJqg3TemnvI5fr8onIKndI9fFk2PXXZqcDf/CP5mY4Hu6IzF7t9jk6Sm9774AYL1X3ptYYTFZ92mbxInU+MmX5gQREuHiacv3nQumekDP1c2UFFGsO4/K5yG6mRX8KYd7j6jFwzbJTpQ25HrJkhCKDtl5kygG0YnnRJUy2z5yJWnNPUsOn+7PJr4x6D5JSpIwp+9Q8sKGnPKWiALHScF1PsJ5IwfnwyOt2RnsGk7IFhtSLB4YTR9qVx6EV7QXTQ0nkI5BNrkSyYlMp/By5vaniKC5HJEfJpVRW//5HkR3+qQBhcivRgqDgvgHwFR1D4fCh+13EnrJHKgcyZQVwk1Fjou5qG3DqWXN51zk/HUTu8a3SWMPhgQ90vuKt4Z7TU3SzccgvNd8VqbN9lijXY9CFYbEiw+U9bpg0ziji26RKXlRZ/X+3vXjzOFu5RGswOsclbTK8fKPZ4hvC4llO7qEEr+nIDJoouFhuOQ1vzofmrKhTw+HRpPKWHizK1clEMvcp6b0HQXlRf8/7i9iF74Wj/Sn2tLPndljNuRDveLhNkndHcWOXEgLxXwNJQjSHrPz9ZNb820b+seQVzlR6+QrlkugWC1IcHiHUI+NiFzvTvA9wo17t7DC7Qp75wQRrgbLem1o6iWnjlSQuUe4ka7RwbQ812jLP3ScAoXXnvam+c+aSAHTM5JT5BKhCg6/8dsOZPG3PQEbdeO07mMWZlHR4s9hxXwSMc5jUu1ee4BooV3ntauuy5R2+mUiRfjd3KmDW/SK8v00+b3QLDakGDJBGu6OoBsJgCjnYoDFG9eo1/4gn+V/5WeQBPOFQeMut7PB5UfPlDisSIO57N684Jon6raiNq68UQVXbcij8o9BK/y6Ob5vvq1Ol3v4Eys92zWT//DcVHvD4yn67uEEp9emLmr2OMPgWyamwFLcmnTCc9BxSxA229I1gTrlnX5tESQYpuXFpYNT7A0/q2pXyBYbUiwRJ3R5XiOtym6w5qiqTLrVxwFvXpUMvVOkq9CwxsK9wsyNXDBiKe7mh9X5uI2eX0+fXzAc2S5kXOZMpVtOGr8zWvi6KrUYG1qprd2xVM5jgETTUdF5xj5x2TjmGQtzUyfT3N038nnFPfdnHJG1q5cPoBgtRHB4i909NsnpKocD+gQohWdMPvigccFc8TrV97uUL6vE9rgasuTXaN8LsfljguHalyzKNdjBlf+Eci4rZ02jZO5OHj0krn603c+6/lc31ha+3OVx3UzfheHFHDF7LsujBC++tVvS0/JmOruAxyL9Y2zVre4BAvbTRKHpYUGGbwBgtVGBEvmC+DqG1ZFuHNA5NWLPZ+1c72fAwznpSdI7xC6PsdVcqbtLdIVZV7LeqRLJKVICAdv08ss0f9QXEdjVuXpLj4bTdMjk3mUbbssJVgL2KzxFMdARLw7uXF00mlxV+60gEd241bn6T5vUIcQ2pZVrRtHx6NkXru6tr35gcd6GgbBaiOCJVvcgJu768ZUuiRRfjom+yPIXwY+Q+hpjcf1HKML7k3f/9KxclqR63kNhvNh3dMpTLimwsGbb/+njP4uqBTDoSLTNhTQPJ1DxrzukzO1neEFf9nMoyL+TY/giO7lkeL1K/Okjm7pPYv9VRd6AAANWklEQVR/dBYNk0sLJLLJyN8hWG1EsO7bUkivfycuzMC/jMduNadGXPOO9vyeUnrki0Jh4kBfdih58f0P+0tOy9rgKs3FVW/0yghynq5lxyvo99uKiI8GzdWpFJNRXkd/21lC7+0r89gmXsf5Q88or8rKyxZV1ftCj+0SRguGyuXD5+ccLKyj0SuduoeYRQLCI79VktlQRc8y+ncIVhsQLFF8UNNOwYuzvH5ldg1CDv26d3MBvfN9mTCkgTOMXpzg3QivrpHo5WOnlvji8l33dQ6nDiEO0jsoz5zu2FRAi45WaqNAvfQtHDDJ5/W2Zlbpxi3xESf+8rqCO418AWVisfSex+tl84ck0sAO8mcoOZvHmFXig+l67+Up4/KRicJRrBEWsvdCsNqAYPFJ/BHLncLDqdzU27tH0FvXcM4m2S4idx8HJY5cnics4mnGDiXHQ9154OR5vjHJITSpXZjuqIo3JHY7a+n6lU5iVq5rWo8ImtX/fweEWdB+Lq2n2fvK6bXvSoRnIXmx+6krYoRphT0R1DuXKEOdhWPZiERDU1Fmcf1KY6Xsm9rCoRbfTEihLhI5+GXaYPQeCFYbEKx9BbU0aGnuKV9Gdx2Bh/Izr4ylP/SM0B2JGO1EfD9Pn3rPyxGujbgyYHrzjqaf4UDSmvoGujLOfRkv172uA+Evf1tyGh8+/3bfryLoaHE9cSXng0W1tPFENWWUiWv7McvJ3Vj8vY/w5kPFnOLYm4unonzO0Js0xLLLB83t4jZPOj+C/nltbIuMrtgeCFYbEKytmZzMzfOWu6vj8a8jpxwZd458wKbsl0m2pBdvmU/vId5+l32v3n28E8dZOZkPZ65tfniXR0g80uRwDM5uwQku9HNc/O9tnKyP1798SS/N086LP8nyqqk8nX1/gHeHjd/4rozu3SKuWdncMJ6CfjQowZKURLIQIFhtQLBkoqa5mbzesnR4kqGATdmOJDO94cXwH25Now6R5pZ+am4jj6rW/VytRYfvyfWchkW2bc3v43OQ7w2IE6aRET2fU8WkvpchzDza/Dl8xpBLaJ0T4x3H9T9X0+ClcqXzmr6bRZrT55i9/ini1PTvEKw2IFhT1hfQhwfKhH53l19J+CHJG2TyyHO+qKO3WpND3mUmHwCfuadUq0pTUt0gPWKSaSZPiW45P5xm9okxpfAs71h2n5Opm1TP3bTswZ5RxLF03q5DckgHnyk0em27IdnyfFcimyBYbUCweszJov0Fng/FujqBVRHuvFgd+fYJj1Hgrvdz6pJFBrbgRZ23+d95QXncqjxh7iajz+X7eTp903lh9Eq/GNNS8nDpsGsWi1MdN7WXR1e8K+ntLqvrWUZjwPhg95LhcgWEveEr+xkIluKCxbtzSe9kCMWCmymb4VO287ju4/WrqxaIpxh/dZPN0ui79O7nTBF/21lMcw+XC/Oly76X17n6pQXTvRdFams3fMjarIuFftwqYzt2euljjNjVf3GusLCq63kcGLtgqLHwCSO2GLkXgqW4YMkconV1CNkMn0Y6EN8rcz6Nswl8NCjekgX/pvby4vqxknr685fFtOBIuW4MlaidnPHz7f5x1C8tyLRRVdN38mL/3ZsLaPb34uk8f46T83F1aTPyTj24rZBe/kYcaMzv9fYolYivN3+HYCkuWDM+Fyd14ybySCFnanuKDTZvhMDP5QXuKRsK6KMD+iW9OMKes2dekRzkTT81/Bne7TtQWEsf7K+gr3KriWO3eO3G07Eh3hBICQ/QRKFduD9NPj+ceApt5QIzs3t8Z4mWJ150sf9m9okmXr8y4/roYAVNXicXUsGVua3YWfamHT4JVteuXYXvnDx5sk/1AvkFMu/hMvNTp04V2uPphoKCAurTp4/u57ku4fr16yktTW7h2Ol00vTp0+n777/XfW5ycjJt2bLFK9v7LMjxWCev6QN5wX3/RP26i94YwKOEhUcr6HiJfuxSZKCDJnYNk85m4I0tnj7DC/EnyjnWqp5yKhuosKqe+IwgX0EOoqhgByWE+FP7iADqFOlP8SEOSyu/NLWTz4DyNFZ08Y7gP/vHCUuIiZ7j+jvH7g3/TFzMld/Lpe6tFG5Zm/k+nwTLyItwr/kE+JhFz3lZwoBRfrO7sk/mW4QngoC1BCBY1vK19Om82M3FDEQFOdmI16+Ok8qXZKnBeDgI+EgAguUjwJb8OK9D/HaTuGgqZ65cc12SttuFCwRUJgDBUtR7vALz+JfF9NRXnvN8u5rGu10rRooLfCqKAmbbiAAES1Fn80LypHX5tOyY+5JTTZtlpPyUojhgtk0IQLAUdTRv0XNJr6bpUjw1hbMSfDAwzpT4HUVxwew2QgCCpagj+cAzJ8yTyS5gVYS7ouhgtsIEIFgKOq+8rpHO+iCT8io9VBVt1iYj5acUxAGTbUQAgqWYs/mAL+dO//OOIinL+UgMp3RJCxeXT5d6IG4CgRYkAMFqQfjevJrL0Y9fnUc/loqzYvLzOY0uhzTgAoG2QACCpZAXeWfwmsW5UrnbuVmcWGDD6GSv0ugqhAWm2ogABEsBZ3MGgu3ZNfTgtiLanVstbXHPxCDaNT6F/Mw97yz9ftwIAmYTgGCZTdTk53GSt2d2l9I7+8qkQhhcr+fT/S9dFUt3X3Rm8qeb3Gw8DgTcEoBgtWDH4Orje3JrNAsigvyIl8U5iUBVPWnnA5cfr6B5hyuElWjcNYGzM6wamWja6f4WxIRXg8AvBCBYLdgZXPUEj5XUUXyIPzn8Gqmugai0tlETLK7k4s3Fa1ezr42nKd3Cvfk4PgMCrZYABKsFXbMrt5YGLsmhkpoGU63gYqmzr/1fgVBTH46HgUALEoBgtSB8I9HqMmZycc1BHUO0ElQpYYi7kmGGe9QiAMFqQX+lL82ldT9XmWZBt7hAWjos0et6daYZggeBgEUEIFgWgRU91tsimu6e66rsMj89geJDHaJX4+8goCwBCFYLuW72vjK6Y6PxcuHNzQ0N8KPpF0TQjJ5RphT3bCEceC0ISBGAYElhMv+mvgtz6Iss+SDQ5hZwLOglScH0r0FxdF5soPkG4okg0AoJQLBawCmcy6rfwhzp84AuE7kUVeeoQOqZGEhju4TRyLNCKTwAYewt4EK8soUIQLBaADyXmNpXUEe7ndXEh5kPFtZRZnkdFVY3UFktx2I1EstQWKCDkkId2gjqksQg6pcaTGdFBVCHSP9WU3apBfDhlTYmAMGysfPRdBBQjQAESzWPwV4QsDEBCJaNnY+mg4BqBCBYqnkM9oKAjQlAsGzsfDQdBFQjAMFSzWOwFwRsTACCZWPno+kgoBoBCJZqHoO9IGBjAhAsGzsfTQcB1QhAsFTzGOwFARsTgGDZ2PloOgioRgCCpZrHYC8I2JgABMvGzkfTQUA1AhAs1TwGe0HAxgQgWDZ2PpoOAqoRgGCp5jHYCwI2JgDBsrHz0XQQUI0ABEs1j8FeELAxAQiWjZ2PpoOAagQgWKp5DPaCgI0JQLBs7Hw0HQRUIwDBUs1jsBcEbEwAgmVj56PpIKAaAQiWah6DvSBgYwIQLBs7H00HAdUIQLBU8xjsBQEbE4Bg2dj5aDoIqEYAgqWax2AvCNiYAATLxs5H00FANQIQLNU8BntBwMYEIFg2dj6aDgKqEYBgqeYx2AsCNiYAwbKx89F0EFCNAARLNY/BXhCwMQEIlo2dj6aDgGoEIFiqeQz2goCNCUCwbOx8NB0EVCMAwVLNY7AXBGxMAIJlY+ej6SCgGgEIlmoeg70gYGMCECwbOx9NBwHVCECwVPMY7AUBGxOAYNnY+Wg6CKhGAIKlmsdgLwjYmAAEy8bOR9NBQDUCECzVPAZ7QcDGBCBYNnY+mg4CqhGAYKnmMdgLAjYmAMGysfPRdBBQjQAESzWPwV4QsDEBCJaNnY+mg4BqBCBYqnkM9oKAjQlAsGzsfDQdBFQjAMFSzWOwFwRsTACCZWPno+kgoBoBCJZqHoO9IGBjAhAsGzsfTQcB1QhAsFTzGOwFARsTgGDZ2PloOgioRgCCpZrHYC8I2JgABMvGzkfTQUA1AhAs1TwGe0HAxgQgWDZ2PpoOAqoRgGCp5jHYCwI2JgDBsrHz0XQQUI0ABEs1j8FeELAxAQiWjZ2PpoOAagQgWKp5DPaCgI0JQLBs7Hw0HQRUIwDBUs1jsBcEbEwAgmVj56PpIKAaAQiWah6DvSBgYwIQLBs7H00HAdUIQLBU8xjsBQEbE4Bg2dj5aDoIqEYAgqWax2AvCNiYAATLxs5H00FANQIQLNU8BntBwMYEIFg2dj6aDgKqEYBgqeYx2AsCNiYAwbKx89F0EFCNAARLNY/BXhCwMQEIlo2dj6aDgGoEIFiqeQz2goCNCUCwbOx8NB0EVCMAwVLNY7AXBGxMAIJlY+ej6SCgGgEIlmoeg70gYGMCECwbOx9NBwHVCECwVPMY7AUBGxOAYNnY+Wg6CKhGAIKlmsdgLwjYmAAEy8bOR9NBQDUCECzVPAZ7QcDGBCBYNnY+mg4CqhGAYKnmMdgLAjYmAMGysfPRdBBQjQAESzWPwV4QsDGB/wcaX5O4fMA1UwAAAABJRU5ErkJggg==;clipPath=inset(30.33% 4.33% 29.33% 2.33%);" parent="1" vertex="1">
          <mxGeometry x="260" y="501" width="190" height="82.10714285714286" as="geometry" />
        </mxCell>
      </root>
    </mxGraphModel>
  </diagram>
</mxfile>
